<?xml version="1.0" encoding="UTF-8" standalone="no"?>
<!-- Generator: Adobe Illustrator 16.0.0, SVG Export Plug-In . SVG Version: 6.00 Build 0)  -->

<svg
   xmlns:dc="http://purl.org/dc/elements/1.1/"
   xmlns:cc="http://creativecommons.org/ns#"
   xmlns:rdf="http://www.w3.org/1999/02/22-rdf-syntax-ns#"
   xmlns:svg="http://www.w3.org/2000/svg"
   xmlns="http://www.w3.org/2000/svg"
   xmlns:sodipodi="http://sodipodi.sourceforge.net/DTD/sodipodi-0.dtd"
   xmlns:inkscape="http://www.inkscape.org/namespaces/inkscape"
   version="1.1"
   id="Layer_1"
   x="0px"
   y="0px"
   width="120px"
   height="120px"
   viewBox="0 0 120 120"
   enable-background="new 0 0 120 120"
   xml:space="preserve"
   inkscape:version="0.91 r13725"
   sodipodi:docname="settings.svg"><metadata
     id="metadata9"><rdf:RDF><cc:Work
         rdf:about=""><dc:format>image/svg+xml</dc:format><dc:type
           rdf:resource="http://purl.org/dc/dcmitype/StillImage" /></cc:Work></rdf:RDF></metadata><defs
     id="defs7" /><sodipodi:namedview
     pagecolor="#ffffff"
     bordercolor="#666666"
     borderopacity="1"
     objecttolerance="10"
     gridtolerance="10"
     guidetolerance="10"
     inkscape:pageopacity="0"
     inkscape:pageshadow="2"
     inkscape:window-width="1383"
     inkscape:window-height="787"
     id="namedview5"
     showgrid="false"
     inkscape:zoom="1.9666667"
     inkscape:cx="-4.3220339"
     inkscape:cy="60"
     inkscape:window-x="336"
     inkscape:window-y="70"
     inkscape:window-maximized="0"
     inkscape:current-layer="Layer_1" /><path
     d="m 108.8258,69.6578 c 1.9899,0 3.8439,-1.6137 4.1148,-3.5865 0,0 0.3798,-2.7729 0.3798,-6.0705 0,-3.2976 -0.3798,-6.0705 -0.3798,-6.0705 -0.2736,-1.9737 -2.1249,-3.5874 -4.1148,-3.5874 l -10.2897,0 c -1.9926,0 -4.0608,-1.2699 -4.5954,-2.8215 -0.5346,-1.5516 -1.2726,-6.5295 0.1359,-7.9371 l 7.272,-7.2729 c 1.4076,-1.4085 1.5174,-3.8124 0.2421,-5.3433 l -8.5563,-8.559 c -1.5309,-1.2762 -3.9339,-1.1682 -5.3442,0.2412 l -7.272,7.2729 c -1.4076,1.4094 -3.7557,1.9764 -5.2137,1.2618 -1.458,-0.7146 -5.5467,-3.7287 -5.5467,-5.7204 l 0,-10.2897 c 0,-1.9917 -1.6146,-3.8439 -3.5865,-4.1148 0,0 -2.7729,-0.3816 -6.0705,-0.3816 -3.2976,0 -6.0705,0.3816 -6.0705,0.3816 -1.9737,0.2709 -3.5892,2.1231 -3.5892,4.1148 l 0,10.2897 c 0,1.9917 -1.269,4.0599 -2.8215,4.5954 -1.5525,0.5355 -6.5295,1.2726 -7.938,-0.1359 l -7.2729,-7.2729 c -1.4085,-1.4085 -3.8124,-1.5174 -5.3424,-0.2421 l -8.5581,8.5581 c -1.2762,1.5309 -1.1682,3.9339 0.2412,5.3433 l 7.272,7.2729 c 1.4085,1.4085 1.9773,3.7548 1.2618,5.2128 -0.7155,1.458 -3.7287,5.5467 -5.7204,5.5467 l -10.2879,0 c -1.9917,0 -3.8439,1.6146 -4.1157,3.5874 0,0 -0.3816,2.7729 -0.3816,6.0696 0,3.2985 0.3816,6.0696 0.3816,6.0696 0.2709,1.9746 2.1231,3.5883 4.1157,3.5883 l 10.2897,0 c 1.9917,0 4.0599,1.2681 4.5945,2.8215 0.5355,1.5525 1.2726,6.5286 -0.1368,7.9362 l -7.272,7.2729 c -1.4085,1.4085 -1.5174,3.8124 -0.2412,5.3442 l 8.5572,8.5581 c 1.5309,1.2753 3.933,1.1691 5.3424,-0.2421 l 7.2729,-7.272 c 1.4085,-1.4076 3.7548,-1.9755 5.2137,-1.2609 1.4589,0.7146 5.5458,3.7287 5.5458,5.7195 l 0,10.2897 c 0,1.9908 1.6146,3.843 3.5892,4.113 0,0 2.772,0.3816 6.0705,0.3816 3.2985,0 6.0705,-0.3816 6.0705,-0.3816 1.9737,-0.2709 3.5865,-2.1222 3.5865,-4.113 l 0,-10.2897 c 0,-1.9917 1.2699,-4.0608 2.8224,-4.5954 1.5534,-0.5355 6.5304,-1.2717 7.938,0.1359 l 7.272,7.2729 c 1.4085,1.4067 3.8124,1.5174 5.3442,0.2412 l 8.5563,-8.5554 c 1.2753,-1.5309 1.1691,-3.933 -0.2421,-5.3442 l -7.272,-7.272 c -1.4085,-1.4076 -1.9773,-3.7548 -1.2609,-5.2137 0.7146,-1.458 3.7287,-5.5467 5.7195,-5.5467 l 10.2906,0 z m -48.8259,9.8604 c -10.7793,0 -19.5174,-8.7363 -19.5174,-19.5183 0,-10.7784 8.7381,-19.5174 19.5174,-19.5174 10.7793,0 19.5183,8.7381 19.5183,19.5174 0,10.7793 -8.739,19.5183 -19.5183,19.5183 z"
     id="path3"
     inkscape:connector-curvature="0"
     style="fill:#010101" /></svg>