<?xml version="1.0" encoding="UTF-8" standalone="no"?>
<svg
   xmlns:dc="http://purl.org/dc/elements/1.1/"
   xmlns:cc="http://creativecommons.org/ns#"
   xmlns:rdf="http://www.w3.org/1999/02/22-rdf-syntax-ns#"
   xmlns:svg="http://www.w3.org/2000/svg"
   xmlns="http://www.w3.org/2000/svg"
   xmlns:xlink="http://www.w3.org/1999/xlink"
   xml:space="preserve"
   enable-background="new 0 0 120 120"
   viewBox="0 0 120 120"
   height="120px"
   width="120px"
   y="0px"
   x="0px"
   id="Layer_1"
   version="1.1"><metadata
     id="metadata15"><rdf:RDF><cc:Work
         rdf:about=""><dc:format>image/svg+xml</dc:format><dc:type
           rdf:resource="http://purl.org/dc/dcmitype/StillImage" /><dc:title></dc:title></cc:Work></rdf:RDF></metadata><defs
     id="defs13" /><g
     transform="translate(7.7919258,-27.839248)"
     id="g4151"><circle
       style="opacity:1;fill:#280b0b;fill-opacity:1;stroke:none;stroke-width:4;stroke-linecap:butt;stroke-linejoin:bevel;stroke-miterlimit:4;stroke-dasharray:none;stroke-dashoffset:0;stroke-opacity:1"
       id="path4136"
       cx="13.084187"
       cy="104.37344"
       r="5.9655418" /><path
       style="fill:none;fill-rule:evenodd;stroke:#000000;stroke-width:5;stroke-linecap:round;stroke-linejoin:miter;stroke-miterlimit:4;stroke-dasharray:none;stroke-opacity:1"
       d="m 9.0799495,90.699153 c 11.6952855,0 18.3050855,4.976613 18.3050855,17.542367"
       id="path4140" /><path
       id="path4142"
       d="m 9.2597226,81.90041 c 17.3650134,0 27.1602234,9.464041 27.1602234,26.28208"
       style="fill:none;fill-rule:evenodd;stroke:#000000;stroke-width:5;stroke-linecap:round;stroke-linejoin:miter;stroke-miterlimit:4;stroke-dasharray:none;stroke-opacity:1" /><path
       style="fill:none;fill-rule:evenodd;stroke:#000000;stroke-width:5;stroke-linecap:round;stroke-linejoin:miter;stroke-miterlimit:4;stroke-dasharray:none;stroke-opacity:1"
       d="m 9.2597226,73.5542 c 24.3565384,0 36.3127654,14.337073 36.3127654,34.62829"
       id="path4144" /></g><rect
     y="20.874197"
     x="5.2451005"
     height="70.929741"
     width="109.65356"
     id="rect4146"
     style="opacity:1;fill:none;fill-opacity:1;stroke:#000000;stroke-width:10;stroke-linecap:round;stroke-linejoin:round;stroke-miterlimit:4;stroke-dasharray:none;stroke-dashoffset:0;stroke-opacity:1" /><path
     transform="matrix(0.67087424,0,0,0.67087424,27.601433,117.38319)"
     d="m 49.806641,-38.207031 a 2.6499577,2.6499577 0 0 0 -1.734375,0.632812 l -22.769532,19.396485 a 2.6499577,2.6499577 0 0 0 1.71875,4.667968 l 45.53711,0 a 2.6499577,2.6499577 0 0 0 1.71875,-4.667968 L 51.509766,-37.574219 a 2.6499577,2.6499577 0 0 0 -1.703125,-0.632812 z"
     id="path4157"
     style="opacity:1;fill:#000000;fill-opacity:1;stroke:none;stroke-width:5;stroke-linecap:round;stroke-linejoin:round;stroke-miterlimit:4;stroke-dasharray:none;stroke-dashoffset:0;stroke-opacity:1"
     xlink:href="#rect4148" /><g
     transform="matrix(0.43838198,0,0,0.43838198,52.76052,21.782263)"
     id="g4189"><path
       d="M 60,19.089 C 22.382,19.089 0.053,60 0.053,60 0.053,60 22.382,100.91 60,100.91 97.618,100.91 119.947,60 119.947,60 119.947,60 97.618,19.089 60,19.089 Z m -10e-4,65.32 C 46.54,84.409 35.59,73.459 35.59,60 c 0,-13.459 10.95,-24.409 24.409,-24.409 13.459,0 24.409,10.95 24.409,24.409 0,13.459 -10.95,24.409 -24.409,24.409 z"
       id="path4179" /><circle
       cx="60"
       cy="60.583"
       r="14.409"
       id="circle4181" /></g></svg>