<?xml version="1.0" encoding="UTF-8" standalone="no"?>
<!-- Generator: Adobe Illustrator 18.1.1, SVG Export Plug-In . SVG Version: 6.00 Build 0)  -->

<svg
   xmlns:dc="http://purl.org/dc/elements/1.1/"
   xmlns:cc="http://creativecommons.org/ns#"
   xmlns:rdf="http://www.w3.org/1999/02/22-rdf-syntax-ns#"
   xmlns:svg="http://www.w3.org/2000/svg"
   xmlns="http://www.w3.org/2000/svg"
   xmlns:sodipodi="http://sodipodi.sourceforge.net/DTD/sodipodi-0.dtd"
   xmlns:inkscape="http://www.inkscape.org/namespaces/inkscape"
   version="1.1"
   x="0px"
   y="0px"
   viewBox="0 0 104 120"
   style="enable-background:new 0 0 104 120;"
   xml:space="preserve"
   id="svg3064"
   inkscape:version="0.48.4 r9939"
   width="100%"
   height="100%"
   sodipodi:docname="clock.svg"><metadata
     id="metadata3087"><rdf:RDF><cc:Work
         rdf:about=""><dc:format>image/svg+xml</dc:format><dc:type
           rdf:resource="http://purl.org/dc/dcmitype/StillImage" /><dc:title /></cc:Work></rdf:RDF></metadata><defs
     id="defs3085" /><sodipodi:namedview
     pagecolor="#ffffff"
     bordercolor="#666666"
     borderopacity="1"
     objecttolerance="10"
     gridtolerance="10"
     guidetolerance="10"
     inkscape:pageopacity="0"
     inkscape:pageshadow="2"
     inkscape:window-width="1749"
     inkscape:window-height="1123"
     id="namedview3083"
     showgrid="false"
     inkscape:zoom="5.7098873"
     inkscape:cx="38.325017"
     inkscape:cy="67.6603"
     inkscape:window-x="7"
     inkscape:window-y="24"
     inkscape:window-maximized="0"
     inkscape:current-layer="svg3064" /><g
     id="clock_1_"><polygon
       id="clock"
       points="51.886,0 104,30.09 104,90.102 51.886,120 0,90.102 0,30.09  " /></g><g
     id="hour_2_"
     style="display:none;"><g
       id="hour_1_"
       style="display:inline;"><polygon
         id="hour"
         style="fill:#FFFFFF;"
         points="56,60 52.676,34 51.324,34 48,60   " /><circle
         id="center_offset_1_"
         style="fill:#FFFFFF;"
         cx="52"
         cy="60"
         r="6" /></g></g><g
     id="minute_2_"
     style="display:none;"><g
       id="minute_1_"
       style="display:inline;"><g
         id="minute"><polygon
           style="fill:#FFFFFF;"
           points="56,60 52.676,17 51.324,17 48,60    "
           id="polygon3075" /><path
           d="M52.838,17L56,60h-8l3.324-43H53 M53.602,16h-0.926h-1.353h-0.926l-0.071,0.923l-3.324,43L46.92,61H48h8h1.08     l-0.083-1.077l-3.324-43L53.602,16L53.602,16z"
           id="path3077" /></g><circle
         id="center_offset"
         style="fill:#FFFFFF;"
         cx="52"
         cy="60"
         r="6" /><circle
         id="center"
         cx="52"
         cy="60"
         r="4" /></g></g><g
     id="second_1_"
     style="display:none;"><polygon
       id="second"
       style="display:inline;fill:#FFFFFF;"
       points="50,8 51.662,14 52.338,14 54,8  " /></g><g
     id="g3244"
     transform="matrix(0.93969262,0.34202014,-0.34202014,0.93969262,55.190204,33.439113)"><g
       transform="translate(-46,-34)"
       style="display:none"
       id="clock_1_-3"><polygon
         points="51.886,0 104,30.09 104,90.102 51.886,120 0,90.102 0,30.09 "
         style="display:inline"
         id="clock-2" /></g><g
       transform="translate(-46,-34)"
       id="hour_2_-0"><g
         id="hour_1_-9"><polygon
           points="56,60 52.676,34 51.324,34 48,60 "
           style="fill:#ffffff"
           id="hour-3" /><circle
           d="m 58,60 c 0,3.313708 -2.686292,6 -6,6 -3.313708,0 -6,-2.686292 -6,-6 0,-3.313708 2.686292,-6 6,-6 3.313708,0 6,2.686292 6,6 z"
           sodipodi:ry="6"
           sodipodi:rx="6"
           sodipodi:cy="60"
           sodipodi:cx="52"
           r="6"
           cy="60"
           cx="52"
           style="fill:#ffffff"
           id="center_offset_1_-4" /></g></g><g
       transform="translate(-46,-34)"
       style="display:none"
       id="minute_2_-7"><g
         style="display:inline"
         id="minute_1_-0"><g
           id="minute-0"><polygon
             id="polygon13"
             points="56,60 52.676,17 51.324,17 48,60 "
             style="fill:#ffffff" /><path
             inkscape:connector-curvature="0"
             id="path15"
             d="M 52.838,17 56,60 H 48 L 51.324,17 H 53 m 0.602,-1 h -0.926 -1.353 -0.926 l -0.071,0.923 -3.324,43 L 46.92,61 h 1.08 8 1.08 l -0.083,-1.077 -3.324,-43 -0.071,-0.923 0,0 z" /></g><circle
           d="m 58,60 c 0,3.313708 -2.686292,6 -6,6 -3.313708,0 -6,-2.686292 -6,-6 0,-3.313708 2.686292,-6 6,-6 3.313708,0 6,2.686292 6,6 z"
           sodipodi:ry="6"
           sodipodi:rx="6"
           sodipodi:cy="60"
           sodipodi:cx="52"
           r="6"
           cy="60"
           cx="52"
           style="fill:#ffffff"
           id="center_offset-4" /><circle
           d="m 56,60 c 0,2.209139 -1.790861,4 -4,4 -2.209139,0 -4,-1.790861 -4,-4 0,-2.209139 1.790861,-4 4,-4 2.209139,0 4,1.790861 4,4 z"
           sodipodi:ry="4"
           sodipodi:rx="4"
           sodipodi:cy="60"
           sodipodi:cx="52"
           r="4"
           cy="60"
           cx="52"
           id="center-0" /></g></g><g
       transform="translate(-46,-34)"
       style="display:none"
       id="second_1_-6"><polygon
         points="50,8 51.662,14 52.338,14 54,8 "
         style="fill:#ffffff;display:inline"
         id="second-2" /></g></g><g
     id="g3343"
     transform="matrix(-0.5,0.8660254,-0.8660254,-0.5,93.091808,76.808016)"><g
       transform="translate(-46,-16)"
       style="display:none"
       id="clock_1_-0"><polygon
         points="104,30.09 104,90.102 51.886,120 0,90.102 0,30.09 51.886,0 "
         style="display:inline"
         id="clock-3" /></g><g
       transform="translate(-46,-16)"
       style="display:none"
       id="hour_2_-5"><g
         style="display:inline"
         id="hour_1_-2"><polygon
           points="52.676,34 51.324,34 48,60 56,60 "
           style="fill:#ffffff"
           id="hour-4" /><circle
           d="m 58,60 c 0,3.313708 -2.686292,6 -6,6 -3.313708,0 -6,-2.686292 -6,-6 0,-3.313708 2.686292,-6 6,-6 3.313708,0 6,2.686292 6,6 z"
           sodipodi:ry="6"
           sodipodi:rx="6"
           sodipodi:cy="60"
           sodipodi:cx="52"
           r="6"
           cy="60"
           cx="52"
           style="fill:#ffffff"
           id="center_offset_1_-0" /></g></g><g
       transform="translate(-46,-16)"
       id="minute_2_-5"><g
         id="minute_1_-1"><g
           id="minute-9"><polygon
             id="polygon13-4"
             points="52.676,17 51.324,17 48,60 56,60 "
             style="fill:#ffffff" /><path
             inkscape:connector-curvature="0"
             id="path15-9"
             d="M 52.838,17 56,60 H 48 L 51.324,17 H 53 m 0.602,-1 h -0.926 -1.353 -0.926 l -0.071,0.923 -3.324,43 L 46.92,61 h 1.08 8 1.08 l -0.083,-1.077 -3.324,-43 -0.071,-0.923 0,0 z" /></g><circle
           d="m 58,60 c 0,3.313708 -2.686292,6 -6,6 -3.313708,0 -6,-2.686292 -6,-6 0,-3.313708 2.686292,-6 6,-6 3.313708,0 6,2.686292 6,6 z"
           sodipodi:ry="6"
           sodipodi:rx="6"
           sodipodi:cy="60"
           sodipodi:cx="52"
           r="6"
           cy="60"
           cx="52"
           style="fill:#ffffff"
           id="center_offset-1" /><circle
           d="m 56,60 c 0,2.209139 -1.790861,4 -4,4 -2.209139,0 -4,-1.790861 -4,-4 0,-2.209139 1.790861,-4 4,-4 2.209139,0 4,1.790861 4,4 z"
           sodipodi:ry="4"
           sodipodi:rx="4"
           sodipodi:cy="60"
           sodipodi:cx="52"
           r="4"
           cy="60"
           cx="52"
           id="center-7" /></g></g><g
       transform="translate(-46,-16)"
       style="display:none"
       id="second_1_-0"><polygon
         points="51.662,14 52.338,14 54,8 50,8 "
         style="fill:#ffffff;display:inline"
         id="second-9" /></g></g></svg>