<?xml version="1.0" encoding="UTF-8" standalone="no"?>
<!-- Generator: Adobe Illustrator 16.0.0, SVG Export Plug-In . SVG Version: 6.00 Build 0)  -->

<svg
   xmlns:dc="http://purl.org/dc/elements/1.1/"
   xmlns:cc="http://creativecommons.org/ns#"
   xmlns:rdf="http://www.w3.org/1999/02/22-rdf-syntax-ns#"
   xmlns:svg="http://www.w3.org/2000/svg"
   xmlns="http://www.w3.org/2000/svg"
   xmlns:sodipodi="http://sodipodi.sourceforge.net/DTD/sodipodi-0.dtd"
   xmlns:inkscape="http://www.inkscape.org/namespaces/inkscape"
   version="1.1"
   id="Layer_1"
   x="0px"
   y="0px"
   width="120px"
   height="120px"
   viewBox="0 0 120 120"
   enable-background="new 0 0 120 120"
   xml:space="preserve"
   inkscape:version="0.91 r13725"
   sodipodi:docname="copy.svg"><metadata
     id="metadata11"><rdf:RDF><cc:Work
         rdf:about=""><dc:format>image/svg+xml</dc:format><dc:type
           rdf:resource="http://purl.org/dc/dcmitype/StillImage" /></cc:Work></rdf:RDF></metadata><defs
     id="defs9" /><sodipodi:namedview
     pagecolor="#ffffff"
     bordercolor="#666666"
     borderopacity="1"
     objecttolerance="10"
     gridtolerance="10"
     guidetolerance="10"
     inkscape:pageopacity="0"
     inkscape:pageshadow="2"
     inkscape:window-width="1626"
     inkscape:window-height="1014"
     id="namedview7"
     showgrid="false"
     inkscape:zoom="2.7812866"
     inkscape:cx="-9.5889833"
     inkscape:cy="93.832278"
     inkscape:window-x="0"
     inkscape:window-y="24"
     inkscape:window-maximized="0"
     inkscape:current-layer="g4147" /><g
     id="g4147"
     transform="translate(-33.283961,-23.240901)"
     style="opacity:1"><path
       d="M 0.021484375 -0.0078125 L 0.021484375 96.759766 L 45.302734 96.759766 L 45.302734 37.330078 L 31.820312 37.330078 L 31.820312 -0.0078125 L 0.021484375 -0.0078125 z M 38.6875 -0.0078125 L 38.6875 31.212891 L 45.302734 31.212891 L 45.302734 18.427734 L 57.123047 18.427734 L 38.6875 -0.0078125 z "
       transform="translate(33.283961,23.240901)"
       id="path4149" /></g><g
     id="g4143"
     transform="translate(16.697713,-2.716682e-8)"
     style="opacity:1"><polygon
       transform="matrix(0.80638704,0,0,0.80638704,19.979309,23.233556)"
       id="polygon3"
       points="16.526,120 16.526,0 55.96,0 55.96,46.301 103.192,46.301 103.192,120 " /><polygon
       transform="matrix(0.80638704,0,0,0.80638704,19.979309,23.233556)"
       id="polygon5"
       points="64.476,38.717 103.192,38.717 64.476,0 " /></g></svg>