<?xml version="1.0" encoding="UTF-8" standalone="no"?>
<!-- Generator: Adobe Illustrator 18.1.1, SVG Export Plug-In . SVG Version: 6.00 Build 0)  -->

<svg
   xmlns:dc="http://purl.org/dc/elements/1.1/"
   xmlns:cc="http://creativecommons.org/ns#"
   xmlns:rdf="http://www.w3.org/1999/02/22-rdf-syntax-ns#"
   xmlns:svg="http://www.w3.org/2000/svg"
   xmlns="http://www.w3.org/2000/svg"
   xmlns:sodipodi="http://sodipodi.sourceforge.net/DTD/sodipodi-0.dtd"
   xmlns:inkscape="http://www.inkscape.org/namespaces/inkscape"
   version="1.1"
   id="Layer_1"
   x="0px"
   y="0px"
   viewBox="0 0 100 100"
   enable-background="new 0 0 100 100"
   xml:space="preserve"
   inkscape:version="0.91 r13725"
   sodipodi:docname="focus.svg"><metadata
     id="metadata17"><rdf:RDF><cc:Work
         rdf:about=""><dc:format>image/svg+xml</dc:format><dc:type
           rdf:resource="http://purl.org/dc/dcmitype/StillImage" /></cc:Work></rdf:RDF></metadata><defs
     id="defs15" /><sodipodi:namedview
     pagecolor="#ffffff"
     bordercolor="#666666"
     borderopacity="1"
     objecttolerance="10"
     gridtolerance="10"
     guidetolerance="10"
     inkscape:pageopacity="0"
     inkscape:pageshadow="2"
     inkscape:window-width="1395"
     inkscape:window-height="800"
     id="namedview13"
     showgrid="false"
     inkscape:zoom="2.36"
     inkscape:cx="-3.6016949"
     inkscape:cy="50"
     inkscape:window-x="429"
     inkscape:window-y="152"
     inkscape:window-maximized="0"
     inkscape:current-layer="Layer_1" /><g
     id="g3"
     transform="matrix(1.1098779,0,0,1.1098779,-5.1054384,-6.0481354)"><path
       d="m 49.9,37.8 c -0.1,0 -0.2,0 -0.3,0 0,0 0,0 0,0 -0.1,0.1 -0.3,0.4 -0.6,0.6 -0.2,0.2 -0.5,0.5 -0.8,0.8 -0.1,0.1 -0.3,0.3 -0.4,0.4 -0.1,0.2 -0.3,0.3 -0.5,0.5 -0.3,0.3 -0.6,0.6 -0.9,1 -0.1,0.1 -0.3,0.3 -0.4,0.5 -0.1,0.1 -0.1,0.1 -0.2,0.2 -0.1,0.1 -0.1,0.2 -0.2,0.2 -0.2,0.3 -0.5,0.6 -0.8,0.9 -0.1,0.1 -0.2,0.3 -0.4,0.4 -0.1,0.2 -0.3,0.3 -0.4,0.4 -0.3,0.3 -0.5,0.6 -0.8,0.8 -0.3,0.3 -0.6,0.6 -0.9,0.9 -0.3,0.3 -0.7,0.6 -1,0.9 -0.3,0.3 -0.7,0.6 -1,0.9 -0.4,0.3 -0.7,0.6 -1,0.9 0,0.1 0,0.2 0,0.3 0,5.8 4.7,10.6 10.6,10.6 5.8,0 10.6,-4.7 10.6,-10.6 0,-5.9 -4.7,-10.6 -10.6,-10.6 z"
       id="path5"
       inkscape:connector-curvature="0" /><path
       d="m 49.9,26.1 c -12.3,0 -22.2,9.9 -22.2,22.2 0,12.3 9.9,22.2 22.2,22.2 12.3,0 22.2,-9.9 22.2,-22.2 C 72.2,36.1 62.2,26.1 49.9,26.1 Z m -0.2,11.7 c -0.1,0.1 -0.3,0.4 -0.6,0.6 -0.2,0.2 -0.5,0.5 -0.8,0.8 -0.1,0.1 -0.3,0.3 -0.4,0.4 -0.1,0.2 -0.3,0.3 -0.5,0.5 -0.3,0.3 -0.6,0.6 -0.9,1 -0.1,0.1 -0.3,0.3 -0.4,0.5 -0.1,0.1 -0.1,0.1 -0.2,0.2 -0.1,0.1 -0.1,0.2 -0.2,0.2 -0.2,0.3 -0.5,0.6 -0.8,0.9 -0.1,0.1 -0.2,0.3 -0.4,0.4 -0.1,0.2 -0.3,0.3 -0.4,0.4 -0.3,0.3 -0.5,0.6 -0.8,0.8 -0.3,0.3 -0.6,0.6 -0.9,0.9 -0.3,0.3 -0.7,0.6 -1,0.9 -0.3,0.3 -0.7,0.6 -1,0.9 -0.7,0.6 -1.3,1.2 -1.9,1.6 -0.2,0.2 -0.5,0.4 -0.6,0.5 -0.2,0.1 -0.2,0.2 -0.2,0.2 0,0 -0.1,-0.1 -0.2,-0.2 -0.1,-0.2 -0.3,-0.4 -0.5,-0.7 -0.2,-0.3 -0.4,-0.7 -0.5,-1.1 -0.2,-0.4 -0.3,-0.9 -0.4,-1.5 -0.2,-1.1 -0.2,-2.4 0.2,-3.8 0.2,-0.7 0.5,-1.4 0.8,-2 0.4,-0.7 0.8,-1.3 1.4,-1.9 0.3,-0.3 0.6,-0.6 0.9,-0.8 0.3,-0.2 0.6,-0.5 1,-0.7 0.7,-0.4 1.4,-0.7 2.1,-0.9 0.4,-0.1 0.7,-0.2 1.1,-0.2 0.4,-0.1 0.7,-0.1 1,-0.1 0.7,0 1.3,0.1 1.9,0.2 0.6,0.2 1.1,0.3 1.5,0.5 0.4,0.2 0.8,0.4 1.1,0.6 0.3,0.2 0.5,0.4 0.6,0.5 0.1,0.1 0.2,0.2 0.2,0.2 0,0 -0.1,0.1 -0.2,0.2 z"
       id="path7"
       inkscape:connector-curvature="0"
       style="opacity:0.6" /><path
       d="m 4.7,52.6 c 0,0 0.2,-0.4 0.5,-1.1 0.4,-0.7 0.9,-1.8 1.7,-3.1 1.6,-2.6 4.2,-6.2 8,-9.9 1.9,-1.8 4.1,-3.7 6.6,-5.4 2.5,-1.7 5.2,-3.3 8.3,-4.7 1.5,-0.7 3.1,-1.3 4.7,-1.8 1.6,-0.5 3.3,-1 4.9,-1.3 3.4,-0.7 6.9,-1.1 10.3,-1.1 3.4,0 7,0.3 10.4,1 0.4,0.1 0.8,0.2 1.3,0.3 0.4,0.1 0.8,0.2 1.2,0.3 0.4,0.1 0.8,0.2 1.2,0.3 0.4,0.1 0.8,0.3 1.2,0.4 0.4,0.1 0.8,0.3 1.2,0.4 0.4,0.1 0.8,0.3 1.2,0.4 0.4,0.1 0.8,0.3 1.2,0.4 0.4,0.2 0.8,0.3 1.1,0.5 3,1.3 5.8,2.9 8.3,4.6 2.5,1.7 4.7,3.6 6.6,5.4 3.8,3.7 6.3,7.3 7.9,10 0.8,1.3 1.3,2.4 1.7,3.1 0.4,0.7 0.5,1.2 0.5,1.2 0,0 -0.3,-0.4 -0.8,-1 -0.5,-0.6 -1.3,-1.5 -2.3,-2.6 -2,-2.2 -5,-5.2 -9,-8.2 -4,-3 -8.9,-5.9 -14.6,-8 C 67.6,32.6 67.3,32.4 66.9,32.3 66.5,32.2 66.2,32.1 65.8,32 65.4,31.9 65.1,31.8 64.7,31.7 64.3,31.6 64,31.5 63.6,31.4 63.2,31.3 62.9,31.2 62.5,31.1 62.1,31 61.7,30.9 61.4,30.9 61,30.8 60.6,30.7 60.3,30.6 59.9,30.5 59.5,30.5 59.1,30.4 56,29.9 52.9,29.6 49.7,29.6 l -2.4,0 c -0.8,0.1 -1.6,0.1 -2.4,0.2 -0.8,0.1 -1.6,0.2 -2.4,0.3 -0.8,0.1 -1.6,0.3 -2.3,0.4 -1.5,0.3 -3.1,0.6 -4.5,1 -1.5,0.4 -2.9,0.9 -4.3,1.4 -2.8,1 -5.5,2.3 -7.9,3.7 -2.4,1.4 -4.7,2.9 -6.7,4.3 -4,3 -7,5.9 -9.1,8.1 -1,1.1 -1.8,2 -2.3,2.6 -0.4,0.6 -0.7,1 -0.7,1 z"
       id="path9"
       inkscape:connector-curvature="0" /><path
       d="m 94.7,52.4 c 0,0 -0.2,0.4 -0.5,1.1 -0.4,0.7 -0.9,1.8 -1.7,3.1 -1.6,2.6 -4.2,6.2 -8,9.9 -1.9,1.8 -4.1,3.7 -6.5,5.4 -2.5,1.7 -5.2,3.4 -8.3,4.7 -1.5,0.7 -3.1,1.3 -4.7,1.8 -1.6,0.5 -3.3,1 -5,1.3 -3.4,0.7 -6.9,1.1 -10.4,1.1 -3.4,0 -7,-0.3 -10.4,-1 C 38.8,79.7 38.4,79.6 37.9,79.5 37.5,79.4 37.1,79.3 36.7,79.2 36.3,79.1 35.9,79 35.5,78.9 35.1,78.8 34.7,78.6 34.3,78.5 33.9,78.4 33.5,78.2 33.1,78.1 32.7,78 32.3,77.8 31.9,77.7 31.5,77.6 31.1,77.4 30.7,77.3 30.3,77.1 29.9,77 29.6,76.8 26.6,75.5 23.8,73.9 21.3,72.1 18.8,70.4 16.6,68.5 14.7,66.6 10.9,62.9 8.4,59.2 6.8,56.6 6,55.3 5.5,54.2 5.1,53.4 4.7,52.7 4.6,52.2 4.6,52.2 c 0,0 0.3,0.4 0.8,1 0.5,0.6 1.3,1.5 2.3,2.7 2,2.2 5,5.2 9,8.2 4,3 8.9,6 14.6,8 0.4,0.1 0.7,0.3 1.1,0.4 0.4,0.1 0.7,0.2 1.1,0.3 0.4,0.1 0.7,0.2 1.1,0.3 0.4,0.1 0.7,0.2 1.1,0.3 0.4,0.1 0.7,0.2 1.1,0.3 0.4,0.1 0.8,0.2 1.1,0.2 0.4,0.1 0.8,0.2 1.1,0.3 0.4,0.1 0.8,0.1 1.2,0.2 3.1,0.5 6.2,0.8 9.5,0.8 l 2.4,0 c 0.8,-0.1 1.6,-0.1 2.4,-0.2 0.8,-0.1 1.6,-0.2 2.4,-0.3 0.8,-0.1 1.6,-0.3 2.3,-0.4 1.5,-0.3 3.1,-0.6 4.5,-1 1.5,-0.4 2.9,-0.9 4.3,-1.4 2.8,-1.1 5.5,-2.3 7.9,-3.7 2.4,-1.4 4.7,-2.9 6.7,-4.4 4,-3 7,-6 9.1,-8.2 1,-1.1 1.8,-2 2.3,-2.6 0.5,-0.2 0.7,-0.6 0.7,-0.6 z"
       id="path11"
       inkscape:connector-curvature="0" /></g></svg>