<?xml version="1.0" encoding="utf-8"?>
<!-- Generator: Adobe Illustrator 18.1.1, SVG Export Plug-In . SVG Version: 6.00 Build 0)  -->
<svg version="1.1" id="Layer_1" xmlns="http://www.w3.org/2000/svg" xmlns:xlink="http://www.w3.org/1999/xlink" x="0px" y="0px"
	 viewBox="0 0 100 100" enable-background="new 0 0 100 100" xml:space="preserve">
<g>
	<path d="M21.5,78.3c-1.2-1.2-1-7.6,5.2-15.9C18,72.8,15.6,81.8,16.8,83c1.2,1.2,10.3-1.3,20.9-10.2C29.2,79.2,22.7,79.4,21.5,78.3z
		"/>
	<g>
		<path d="M90.9,9c0,0-12.2,1.6-22,6.4l15.7,15.7C89.4,21.2,90.9,9,90.9,9z"/>
		<path d="M83.6,33L67,16.4c-2.3,1.3-4.4,2.8-6.2,4.5C51.6,30.1,40.6,42,40.6,42l-10.6-1L10.1,55.5l3.6,3.3L31.8,54l7,7l7.1,7.1
			l-4.8,18.1l3.3,3.6L59,70l-1-10.6c0,0,11.8-11.1,21-20.3C80.8,37.4,82.3,35.3,83.6,33z M72.7,34c-1.9,1.9-4.9,1.9-6.8,0
			c-1.9-1.9-1.9-4.9,0-6.8c1.9-1.9,4.9-1.9,6.8,0C74.6,29.1,74.6,32.1,72.7,34z"/>
	</g>
</g>
</svg>
