<?xml version="1.0" encoding="UTF-8" standalone="no"?>
<!-- Generator: Adobe Illustrator 18.1.1, SVG Export Plug-In . SVG Version: 6.00 Build 0)  -->

<svg
   xmlns:dc="http://purl.org/dc/elements/1.1/"
   xmlns:cc="http://creativecommons.org/ns#"
   xmlns:rdf="http://www.w3.org/1999/02/22-rdf-syntax-ns#"
   xmlns:svg="http://www.w3.org/2000/svg"
   xmlns="http://www.w3.org/2000/svg"
   xmlns:sodipodi="http://sodipodi.sourceforge.net/DTD/sodipodi-0.dtd"
   xmlns:inkscape="http://www.inkscape.org/namespaces/inkscape"
   version="1.1"
   x="0px"
   y="0px"
   viewBox="0 0 4 50"
   xml:space="preserve"
   id="svg2"
   inkscape:version="0.48.4 r9939"
   width="100%"
   height="100%"
   sodipodi:docname="second.svg"><metadata
     id="metadata25"><rdf:RDF><cc:Work
         rdf:about=""><dc:format>image/svg+xml</dc:format><dc:type
           rdf:resource="http://purl.org/dc/dcmitype/StillImage" /></cc:Work></rdf:RDF></metadata><defs
     id="defs23" /><sodipodi:namedview
     pagecolor="#ffffff"
     bordercolor="#666666"
     borderopacity="1"
     objecttolerance="10"
     gridtolerance="10"
     guidetolerance="10"
     inkscape:pageopacity="0"
     inkscape:pageshadow="2"
     inkscape:window-width="640"
     inkscape:window-height="480"
     id="namedview21"
     showgrid="false"
     fit-margin-top="0"
     fit-margin-left="0"
     fit-margin-right="0"
     fit-margin-bottom="0"
     inkscape:zoom="15.733334"
     inkscape:cx="8.1080507"
     inkscape:cy="49.327078"
     inkscape:window-x="1151"
     inkscape:window-y="286"
     inkscape:window-maximized="0"
     inkscape:current-layer="svg2" /><g
     id="clock_1_"
     style="display:none"
     transform="translate(-50,36)"><polygon
       id="clock"
       style="display:inline"
       points="51.886,120 0,90.102 0,30.09 51.886,0 104,30.09 104,90.102 " /></g><g
     id="hour_2_"
     style="display:none"
     transform="translate(-50,36)"><g
       id="hour_1_"
       style="display:inline"><polygon
         id="hour"
         style="fill:#ffffff"
         points="48,60 56,60 52.676,34 51.324,34 " /><circle
         id="center_offset_1_"
         style="fill:#ffffff"
         cx="52"
         cy="60"
         r="6"
         sodipodi:cx="52"
         sodipodi:cy="60"
         sodipodi:rx="6"
         sodipodi:ry="6"
         d="m 58,60 c 0,3.313708 -2.686292,6 -6,6 -3.313708,0 -6,-2.686292 -6,-6 0,-3.313708 2.686292,-6 6,-6 3.313708,0 6,2.686292 6,6 z" /></g></g><g
     id="minute_2_"
     style="display:none"
     transform="translate(-50,36)"><g
       id="minute_1_"
       style="display:inline"><g
         id="minute"><polygon
           style="fill:#ffffff"
           points="48,60 56,60 52.676,17 51.324,17 "
           id="polygon13" /><path
           d="M 52.838,17 56,60 H 48 L 51.324,17 H 53 m 0.602,-1 h -0.926 -1.353 -0.926 l -0.071,0.923 -3.324,43 L 46.92,61 h 1.08 8 1.08 l -0.083,-1.077 -3.324,-43 -0.071,-0.923 0,0 z"
           id="path15"
           inkscape:connector-curvature="0" /></g><circle
         id="center_offset"
         style="fill:#ffffff"
         cx="52"
         cy="60"
         r="6"
         sodipodi:cx="52"
         sodipodi:cy="60"
         sodipodi:rx="6"
         sodipodi:ry="6"
         d="m 58,60 c 0,3.313708 -2.686292,6 -6,6 -3.313708,0 -6,-2.686292 -6,-6 0,-3.313708 2.686292,-6 6,-6 3.313708,0 6,2.686292 6,6 z" /><circle
         id="center"
         cx="52"
         cy="60"
         r="4"
         sodipodi:cx="52"
         sodipodi:cy="60"
         sodipodi:rx="4"
         sodipodi:ry="4"
         d="m 56,60 c 0,2.209139 -1.790861,4 -4,4 -2.209139,0 -4,-1.790861 -4,-4 0,-2.209139 1.790861,-4 4,-4 2.209139,0 4,1.790861 4,4 z" /></g></g><g
     id="second_1_"
     transform="translate(-50,-8)"><polygon
       id="second"
       style="fill:#ffffff"
       points="54,8 50,8 51.662,14 52.338,14 " /></g></svg>