<?xml version="1.0" encoding="UTF-8"?>
<svg width="512" height="512" version="1.1" viewBox="0 0 511.99999 407.97943" xmlns="http://www.w3.org/2000/svg" xmlns:cc="http://creativecommons.org/ns#" xmlns:dc="http://purl.org/dc/elements/1.1/" xmlns:rdf="http://www.w3.org/1999/02/22-rdf-syntax-ns#">
<g transform="translate(-119.5,-232.94)">
<rect x="119.5" y="218.93" width="512" height="436" rx=".19105" ry=".25187" fill="#002658"/>
<g transform="matrix(.89684 0 0 .76372 35.149 106.61)" fill="#02416d">
<rect x="119.5" y="532.52" width="160" height="160" rx=".81684" ry=".79809"/>
<rect x="299.5" y="532.52" width="160" height="160" rx=".81684" ry=".79809"/>
<rect x="479.5" y="532.52" width="160" height="160" rx=".81684" ry=".79809"/>
<rect x="119.5" y="352.52" width="160" height="160" rx=".81684" ry=".79809"/>
<rect x="479.5" y="352.52" width="160" height="160" rx=".81684" ry=".79809"/>
<rect x="119.5" y="172.52" width="160" height="160" rx=".81684" ry=".79809"/>
<rect x="299.5" y="172.52" width="160" height="160" rx=".81684" ry=".79809"/>
<rect x="479.5" y="172.52" width="160" height="160" rx=".81684" ry=".79809"/>
<rect x="299.5" y="352.52" width="160" height="160" rx=".81684" ry=".79809"/>
</g>
</g>
<g transform="translate(-119.5,-232.94)" display="none">
<path d="m259.41 218.91c-22.484-0.35922-45.134 11.562-56.067 31.48-10.493 18.18-9.2877 40.773-2.6583 60.053 3.7468 10.47 9.9166 20.577 19.405 26.742 5.4836-2.2838 2.1288-10.007 1.9776-14.61-1.1167-7.8884-2.2514-15.777-3.0979-23.7-9.0156-3.8629-15.008-15.323-10.032-24.476 6.123-12.05 20.318-17.645 33.287-16.799 13.717 0.0964 27.446-0.19907 41.155 0.15944 12.365 1.0708 25.589 9.024 28.167 21.874 1.126 8.1457-4.443 15.958-11.681 19.242-1.0522 10.837-3.067 21.563-4.1646 32.386-1.1174 5.1714 3.9255 7.7705 6.8773 3.076 14.402-12.648 19.793-32.55 20.613-51.086 1.2972-21.926-10.351-43.978-29.348-55.063-10.321-6.2353-22.406-9.3048-34.433-9.2768zm-19.4 40.835c-12.345-0.0423-26.069 6.829-29.646 19.325-2.1079 8.8128 5.8712 16.172 13.677 18.38 6.7743 2.8176 14.257 1.2327 21.154 3.2006 4.7947 0.69628 8.2583 6.9674 10.809 8.4817-1.2778-3.5838 5.9902-4.4389 4.5776-0.1299 4.9641-3.5385 9.936-9.0232 16.829-9.2348 10.27-0.16231 22.273-1.3252 28.909-10.217 5.282-7.012 1.1867-16.616-4.9742-21.564-7.4628-6.8828-17.852-8.7618-27.66-8.2412h-33.674zm-10.671 18.393c6.0521 0.14095 12.732 6e-3 17.824 3.7923-3.5106 1.7906-3.875 4.013-6.1658 7.0171-7.9741 4.2766-8.0848-7.0043-14.112-9.0906-3.7513-3.0148 0.51816-1.181 2.4539-1.7187zm58.9 0c3.8213-0.38432 6.9651 0.0381 2.3409 2.9514-5.119 1.9772-5.3308 12.297-12.749 7.858-2.308-2.9846-2.6616-5.2216-6.1658-7.0171 4.7056-3.5734 10.938-3.5874 16.574-3.7923zm-39.431 36.353c-5.5263 1.0432-12.028 2.2004-16.325 5.6688-2.3559 4.6802 0.7224 9.3211 3.1157 13.325 3.0363 5.9788 9.5192 7.6833 15.615 8.679 8.39 2.4272 17.152 0.25269 25.189-2.3854 5.4313-3.3618 9.4529-9.4624 10.819-15.471 0.84982-7.9138-7.8594-6.7512-12.962-9.1023-7.4687-1.7812-15.209 0.8742-22.777-0.62814l-1.3289-0.0635-1.345-0.0241-1e-3 1e-3zm11.066 3.0079c5.9354-1.0248 5.222 10.753 1.1996 10.834-4.6033 1.367-5.4051-2.6602-5.3748-6.5401-0.47562-2.8171 1.5225-4.4605 4.1752-4.2938zm-8.5498 0.43957c4.8356-0.28976 5.2075 11.118 1.459 10.772-4.6442 0.95813-4.7562-3.864-4.8273-7.3657-0.21508-1.9792 1.4922-3.4694 3.3682-3.4062zm17.1 0c5.038-0.0913 4.2093 10.289 0.44201 10.577-4.9842 2.1119-4.2466-3.5688-4.0194-7.0277 9e-3 -1.9807 1.5884-3.625 3.5774-3.5491zm-23.589 2.3788c3.2609-0.51303 1.4603 4.102 2.1814 6.151 1.129 3.183-2.7505 1.2061-4.494 1.4299-3.333 0.0554-2.2539-9.373 2.3126-7.581zm29.957 0c5.4369-1.8205 6.5772 8.9121 1.2203 7.7227-3.0566 1.072-3.5206-0.52678-2.8789-3.2647 0.57577-1.3828-0.89196-5.0904 1.6587-4.458zm-33.604 9.1359c2.0248 0.73784 6.0269-0.75325 6.2671 2.0042 1.875 7.924-8.0697 6.9805-6.2671-2.0042zm37.663 0c2.6675 5.2197-5.9146 11.014-6.4808 3.8543-0.94055-4.2484 3.1334-3.413 5.8575-3.7957l0.3549-0.0334 0.26831-0.0253 1.4e-4 6e-5zm-29.734 0.5602c2.0767 0.76025 6.5086-0.86228 6.1491 2.3742 3.0421 7.4159-8.9269 7.8388-6.7107 0.50623 0.12096-0.97153 0.30992-1.9347 0.56162-2.8804zm7.7828 0c2.222 0.55126 6.5655-1.5202 6.4 2.0027 3.9802 6.5637-7.8688 10.303-7.1405 2.5659 0.0686-1.5453 0.34988-3.0746 0.74055-4.5686zm13.738 0c3.7948 4.6423-3.6123 12.604-6.0991 5.8246-1.5546-4.6355 1.1692-6.0687 5.1207-5.7324 0.32612-0.0307 0.65223-0.0615 0.97835-0.0921z" fill="#ff7f2a"/>
</g>
<g transform="translate(-119.5,-232.94)">
<g transform="matrix(.84829 0 0 .84967 56.076 66.615)">
<path d="m225.55 594.83s47.794 35.778 132.15 35.778c129.22 0 265.15-90.467 265.15-206.48 0-104.48-82.744-204.39-252.26-201.06-136.86 2.6926-205.43 86.419-223.61 134.23 37.766-51.182 122.28-92.585 216.3-92.585 79.042 0 130.58 34.28 130.58 110.32 0 111.81-119.24 223.77-240.1 223.77-18.762 0-28.2-3.9753-28.2-3.9753z" fill="#0ff"/>
<path d="m439.69 509.8c40.718 12.386 100.45-69.218 71.601-180.1 41.424 130.48-18.124 216.91-71.601 180.1z" fill="#fff"/>
<path d="m612.47 435.67s-41.251 82.076-64.221 112.05c57.398-6.9574 64.221-112.05 64.221-112.05z" fill="#fff"/>
<path d="m456.83 519.31c80.175 32.831 131.92-68.787 114.19-150.44 37.069 59.576-8.4332 212.57-114.19 150.44z" fill="#fff"/>
<path d="m438.42 457.56s35.323-22.62 39.756-126.18c24.103 105.1-39.756 126.18-39.756 126.18z" fill="#0ff"/>
<path d="m201.08 316.74s-41.228 82.087-51.566 118.4c-28.679-50.203 51.566-118.4 51.566-118.4z" fill="#0ff"/>
</g>
</g>
</svg>

