<?xml version="1.0" encoding="utf-8"?>
<!-- Generator: Adobe Illustrator 18.1.1, SVG Export Plug-In . SVG Version: 6.00 Build 0)  -->
<!DOCTYPE svg PUBLIC "-//W3C//DTD SVG 1.1//EN" "http://www.w3.org/Graphics/SVG/1.1/DTD/svg11.dtd">
<svg version="1.1" id="Layer_1" xmlns="http://www.w3.org/2000/svg" xmlns:xlink="http://www.w3.org/1999/xlink" x="0px" y="0px"
	 viewBox="0 0 100 100" enable-background="new 0 0 100 100" xml:space="preserve">
<g>
	<path d="M49.9,37.8c-0.1,0-0.2,0-0.3,0c0,0,0,0,0,0c-0.1,0.1-0.3,0.4-0.6,0.6c-0.2,0.2-0.5,0.5-0.8,0.8c-0.1,0.1-0.3,0.3-0.4,0.4
		c-0.1,0.2-0.3,0.3-0.5,0.5c-0.3,0.3-0.6,0.6-0.9,1c-0.1,0.1-0.3,0.3-0.4,0.5c-0.1,0.1-0.1,0.1-0.2,0.2c-0.1,0.1-0.1,0.2-0.2,0.2
		c-0.2,0.3-0.5,0.6-0.8,0.9c-0.1,0.1-0.2,0.3-0.4,0.4c-0.1,0.2-0.3,0.3-0.4,0.4c-0.3,0.3-0.5,0.6-0.8,0.8c-0.3,0.3-0.6,0.6-0.9,0.9
		c-0.3,0.3-0.7,0.6-1,0.9c-0.3,0.3-0.7,0.6-1,0.9c-0.4,0.3-0.7,0.6-1,0.9c0,0.1,0,0.2,0,0.3c0,5.8,4.7,10.6,10.6,10.6
		c5.8,0,10.6-4.7,10.6-10.6C60.5,42.5,55.8,37.8,49.9,37.8z"/>
	<path opacity="0.6" d="M49.9,26.1c-12.3,0-22.2,9.9-22.2,22.2c0,12.3,9.9,22.2,22.2,22.2c12.3,0,22.2-9.9,22.2-22.2
		C72.2,36.1,62.2,26.1,49.9,26.1z M49.7,37.8c-0.1,0.1-0.3,0.4-0.6,0.6c-0.2,0.2-0.5,0.5-0.8,0.8c-0.1,0.1-0.3,0.3-0.4,0.4
		c-0.1,0.2-0.3,0.3-0.5,0.5c-0.3,0.3-0.6,0.6-0.9,1c-0.1,0.1-0.3,0.3-0.4,0.5c-0.1,0.1-0.1,0.1-0.2,0.2c-0.1,0.1-0.1,0.2-0.2,0.2
		c-0.2,0.3-0.5,0.6-0.8,0.9c-0.1,0.1-0.2,0.3-0.4,0.4c-0.1,0.2-0.3,0.3-0.4,0.4c-0.3,0.3-0.5,0.6-0.8,0.8c-0.3,0.3-0.6,0.6-0.9,0.9
		c-0.3,0.3-0.7,0.6-1,0.9c-0.3,0.3-0.7,0.6-1,0.9c-0.7,0.6-1.3,1.2-1.9,1.6c-0.2,0.2-0.5,0.4-0.6,0.5c-0.2,0.1-0.2,0.2-0.2,0.2
		s-0.1-0.1-0.2-0.2c-0.1-0.2-0.3-0.4-0.5-0.7c-0.2-0.3-0.4-0.7-0.5-1.1c-0.2-0.4-0.3-0.9-0.4-1.5c-0.2-1.1-0.2-2.4,0.2-3.8
		c0.2-0.7,0.5-1.4,0.8-2c0.4-0.7,0.8-1.3,1.4-1.9c0.3-0.3,0.6-0.6,0.9-0.8c0.3-0.2,0.6-0.5,1-0.7c0.7-0.4,1.4-0.7,2.1-0.9
		c0.4-0.1,0.7-0.2,1.1-0.2c0.4-0.1,0.7-0.1,1-0.1c0.7,0,1.3,0.1,1.9,0.2c0.6,0.2,1.1,0.3,1.5,0.5c0.4,0.2,0.8,0.4,1.1,0.6
		c0.3,0.2,0.5,0.4,0.6,0.5c0.1,0.1,0.2,0.2,0.2,0.2S49.8,37.7,49.7,37.8z"/>
	<path d="M4.7,52.6c0,0,0.2-0.4,0.5-1.1c0.4-0.7,0.9-1.8,1.7-3.1c1.6-2.6,4.2-6.2,8-9.9c1.9-1.8,4.1-3.7,6.6-5.4
		c2.5-1.7,5.2-3.3,8.3-4.7c1.5-0.7,3.1-1.3,4.7-1.8c1.6-0.5,3.3-1,4.9-1.3c3.4-0.7,6.9-1.1,10.3-1.1c3.4,0,7,0.3,10.4,1
		c0.4,0.1,0.8,0.2,1.3,0.3c0.4,0.1,0.8,0.2,1.2,0.3c0.4,0.1,0.8,0.2,1.2,0.3c0.4,0.1,0.8,0.3,1.2,0.4c0.4,0.1,0.8,0.3,1.2,0.4
		c0.4,0.1,0.8,0.3,1.2,0.4c0.4,0.1,0.8,0.3,1.2,0.4c0.4,0.2,0.8,0.3,1.1,0.5c3,1.3,5.8,2.9,8.3,4.6c2.5,1.7,4.7,3.6,6.6,5.4
		c3.8,3.7,6.3,7.3,7.9,10c0.8,1.3,1.3,2.4,1.7,3.1c0.4,0.7,0.5,1.2,0.5,1.2s-0.3-0.4-0.8-1c-0.5-0.6-1.3-1.5-2.3-2.6
		c-2-2.2-5-5.2-9-8.2c-4-3-8.9-5.9-14.6-8c-0.4-0.1-0.7-0.3-1.1-0.4c-0.4-0.1-0.7-0.2-1.1-0.3c-0.4-0.1-0.7-0.2-1.1-0.3
		c-0.4-0.1-0.7-0.2-1.1-0.3c-0.4-0.1-0.7-0.2-1.1-0.3c-0.4-0.1-0.8-0.2-1.1-0.2c-0.4-0.1-0.8-0.2-1.1-0.3c-0.4-0.1-0.8-0.1-1.2-0.2
		c-3.1-0.5-6.2-0.8-9.4-0.8l-2.4,0c-0.8,0.1-1.6,0.1-2.4,0.2c-0.8,0.1-1.6,0.2-2.4,0.3c-0.8,0.1-1.6,0.3-2.3,0.4
		c-1.5,0.3-3.1,0.6-4.5,1c-1.5,0.4-2.9,0.9-4.3,1.4c-2.8,1-5.5,2.3-7.9,3.7c-2.4,1.4-4.7,2.9-6.7,4.3c-4,3-7,5.9-9.1,8.1
		c-1,1.1-1.8,2-2.3,2.6C5,52.2,4.7,52.6,4.7,52.6z"/>
	<path d="M94.7,52.4c0,0-0.2,0.4-0.5,1.1c-0.4,0.7-0.9,1.8-1.7,3.1c-1.6,2.6-4.2,6.2-8,9.9c-1.9,1.8-4.1,3.7-6.5,5.4
		c-2.5,1.7-5.2,3.4-8.3,4.7c-1.5,0.7-3.1,1.3-4.7,1.8c-1.6,0.5-3.3,1-5,1.3c-3.4,0.7-6.9,1.1-10.4,1.1c-3.4,0-7-0.3-10.4-1
		c-0.4-0.1-0.8-0.2-1.3-0.3c-0.4-0.1-0.8-0.2-1.2-0.3c-0.4-0.1-0.8-0.2-1.2-0.3c-0.4-0.1-0.8-0.3-1.2-0.4c-0.4-0.1-0.8-0.3-1.2-0.4
		c-0.4-0.1-0.8-0.3-1.2-0.4c-0.4-0.1-0.8-0.3-1.2-0.4c-0.4-0.2-0.8-0.3-1.1-0.5c-3-1.3-5.8-2.9-8.3-4.7c-2.5-1.7-4.7-3.6-6.6-5.5
		c-3.8-3.7-6.3-7.4-7.9-10c-0.8-1.3-1.3-2.4-1.7-3.2c-0.4-0.7-0.5-1.2-0.5-1.2s0.3,0.4,0.8,1c0.5,0.6,1.3,1.5,2.3,2.7
		c2,2.2,5,5.2,9,8.2c4,3,8.9,6,14.6,8c0.4,0.1,0.7,0.3,1.1,0.4c0.4,0.1,0.7,0.2,1.1,0.3c0.4,0.1,0.7,0.2,1.1,0.3
		c0.4,0.1,0.7,0.2,1.1,0.3c0.4,0.1,0.7,0.2,1.1,0.3c0.4,0.1,0.8,0.2,1.1,0.2c0.4,0.1,0.8,0.2,1.1,0.3c0.4,0.1,0.8,0.1,1.2,0.2
		c3.1,0.5,6.2,0.8,9.5,0.8l2.4,0c0.8-0.1,1.6-0.1,2.4-0.2c0.8-0.1,1.6-0.2,2.4-0.3c0.8-0.1,1.6-0.3,2.3-0.4c1.5-0.3,3.1-0.6,4.5-1
		c1.5-0.4,2.9-0.9,4.3-1.4c2.8-1.1,5.5-2.3,7.9-3.7c2.4-1.4,4.7-2.9,6.7-4.4c4-3,7-6,9.1-8.2c1-1.1,1.8-2,2.3-2.6
		C94.5,52.8,94.7,52.4,94.7,52.4z"/>
</g>
</svg>
