<?xml version="1.0" encoding="UTF-8" standalone="no"?>
<svg
   xmlns:dc="http://purl.org/dc/elements/1.1/"
   xmlns:cc="http://creativecommons.org/ns#"
   xmlns:rdf="http://www.w3.org/1999/02/22-rdf-syntax-ns#"
   xmlns:svg="http://www.w3.org/2000/svg"
   xmlns="http://www.w3.org/2000/svg"
   xmlns:sodipodi="http://sodipodi.sourceforge.net/DTD/sodipodi-0.dtd"
   xmlns:inkscape="http://www.inkscape.org/namespaces/inkscape"
   id="icon-lock"
   x="0px"
   y="0px"
   viewBox="0 0 120 120"
   xml:space="preserve"
   version="1.1"
   inkscape:version="0.91 r13725"
   sodipodi:docname="lock_thin.svg"><metadata
     id="metadata9"><rdf:RDF><cc:Work
         rdf:about=""><dc:format>image/svg+xml</dc:format><dc:type
           rdf:resource="http://purl.org/dc/dcmitype/StillImage" /><dc:title></dc:title></cc:Work></rdf:RDF></metadata><defs
     id="defs7" /><sodipodi:namedview
     pagecolor="#ffffff"
     bordercolor="#666666"
     borderopacity="1"
     objecttolerance="10"
     gridtolerance="10"
     guidetolerance="10"
     inkscape:pageopacity="0"
     inkscape:pageshadow="2"
     inkscape:window-width="1920"
     inkscape:window-height="1176"
     id="namedview5"
     showgrid="true"
     inkscape:zoom="7.8666667"
     inkscape:cx="66.138312"
     inkscape:cy="61.757174"
     inkscape:window-x="1920"
     inkscape:window-y="24"
     inkscape:window-maximized="1"
     inkscape:current-layer="icon-lock"
     showguides="true"
     inkscape:guide-bbox="true"><inkscape:grid
       type="xygrid"
       id="grid3463" /><sodipodi:guide
       position="-28.474576,115"
       orientation="-0.70710678,0.70710678"
       id="guide3465" /><sodipodi:guide
       position="7.3728814,105"
       orientation="1,0"
       id="guide3467" /><sodipodi:guide
       position="113.13559,80"
       orientation="1,0"
       id="guide3469" /><sodipodi:guide
       position="126.48305,102.20339"
       orientation="0,1"
       id="guide3471" /><sodipodi:guide
       position="102.45763,96.61017"
       orientation="1,0"
       id="guide3473" /><sodipodi:guide
       position="18.050847,105"
       orientation="1,0"
       id="guide3475" /><sodipodi:guide
       position="15,7.6271187"
       orientation="0,1"
       id="guide3477" /></sodipodi:namedview><path
     d="m 103.876,45.208 -1.52542,-0.254237 C 102.35058,20.760763 84.193,1.333 60.001,1.333 35.808,1.333 17.397186,21.015 17.397186,45.208 l -10.1090504,0 0,67.33475 L 113.22034,112.41563 113.09322,45.208 Z m -69.75,0 c 0,-14.268 11.607,-27.019068 25.875,-27.019068 14.268,0 25.875,12.751068 25.875,27.019068 l 1.398305,-0.254237 z m 31.749,32.918 0,20.059 -11.889,0 0,-20.063 c -2.485,-1.828 -4.105,-4.766 -4.105,-8.09 0,-5.551 4.5,-10.05 10.051,-10.05 5.552,0 10.05,4.5 10.05,10.05 0,3.324 -1.62,6.264 -4.107,8.094 z"
     id="path3"
     inkscape:connector-curvature="0"
     sodipodi:nodetypes="ccscccccccscccsccccsss" /></svg>